<svg xmlns="http://www.w3.org/2000/svg" version="1.1" xmlns:xlink="http://www.w3.org/1999/xlink" xmlns:svgjs="http://svgjs.dev/svgjs" width="1440" height="560" preserveAspectRatio="none" viewBox="0 0 1440 560"><g mask="url(&quot;#SvgjsMask1005&quot;)" fill="none"><rect width="1440" height="560" x="0" y="0" fill="#1e3266"></rect><path d="M1488 560L0 560 L0 294.4Q81.53 255.93, 120 337.46Q166.5 263.95, 240 310.45Q269.46 267.91, 312 297.38Q363.06 276.44, 384 327.49Q455.56 279.05, 504 350.6Q508.44 283.04, 576 287.48Q611.22 250.7, 648 285.91Q730.08 247.99, 768 330.06Q809.38 299.44, 840 340.81Q884.48 313.29, 912 357.78Q915.19 288.97, 984 292.16Q1050.41 238.58, 1104 304.99Q1177.43 258.42, 1224 331.85Q1294.74 282.59, 1344 353.32Q1346.05 283.37, 1416 285.41Q1475.24 272.65, 1488 331.9z" fill="#182f5d"></path><path d="M1464 560L0 560 L0 398.71Q71.3 350.01, 120 421.32Q152.2 333.52, 240 365.72Q312.14 317.86, 360 390Q390.73 348.73, 432 379.46Q477.3 304.75, 552 350.05Q608.04 334.09, 624 390.12Q700.29 346.41, 744 422.7Q752.69 359.39, 816 368.08Q881.08 313.16, 936 378.24Q1004.89 375.13, 1008 444.02Q1031.39 395.41, 1080 418.81Q1095.74 362.55, 1152 378.29Q1223.79 330.08, 1272 401.87Q1349.94 359.81, 1392 437.75Q1396.3 370.04, 1464 374.34z" fill="#25467d"></path><path d="M1488 560L0 560 L0 493.71Q39.58 461.29, 72 500.87Q93.92 450.79, 144 472.71Q188.68 397.39, 264 442.07Q291.45 397.52, 336 424.98Q435.49 404.47, 456 503.96Q476.36 452.32, 528 472.68Q566.94 391.62, 648 430.55Q694.36 404.91, 720 451.27Q772.79 432.06, 792 484.85Q822.71 443.56, 864 474.27Q900.14 390.41, 984 426.56Q1058.6 381.15, 1104 455.75Q1186.35 418.1, 1224 500.45Q1229.43 433.88, 1296 439.32Q1325.08 396.4, 1368 425.48Q1471.61 409.09, 1488 512.69z" fill="#356cb1"></path><path d="M1488 560L0 560 L0 507.5Q80.27 467.77, 120 548.05Q127.01 483.06, 192 490.07Q261.35 439.42, 312 508.78Q380.17 456.95, 432 525.13Q520.15 493.28, 552 581.43Q581.25 538.68, 624 567.94Q667.24 491.18, 744 534.42Q787.19 505.61, 816 548.8Q892.63 505.42, 936 582.05Q944.82 518.87, 1008 527.69Q1049.3 448.99, 1128 490.28Q1215.15 457.43, 1248 544.58Q1294.39 470.98, 1368 517.37Q1456.45 485.82, 1488 574.27z" fill="white"></path></g><defs><mask id="SvgjsMask1005"><rect width="1440" height="560" fill="#ffffff"></rect></mask></defs></svg>